Coordinates
version=1
nRows=21
nColumns=22
inDegrees=yes

Units are S.I. units (second, meters, Newtons, ...)
If the header above contains a line with 'inDegrees', this indicates whether rotational values are in degrees (yes) or radians (no).

endheader
time	pelvis_tilt	pelvis_list	pelvis_rotation	pelvis_tx	pelvis_ty	pelvis_tz	hip_flexion_r	hip_adduction_r	hip_rotation_r	knee_angle_r	ankle_angle_r	subtalar_angle_r	hip_flexion_l	hip_adduction_l	hip_rotation_l	knee_angle_l	ankle_angle_l	subtalar_angle_l	lumbar_extension	lumbar_bending	lumbar_rotation
      2.08000000	     -5.53762825	     -5.51756960	     -1.49234400	     -0.34045311	      0.91795930	     -0.06667754	     23.77406959	      8.60890570	     -6.80351388	    -19.38770965	      3.30114247	     -4.30512391	     -3.90519276	     -6.39343564	     -0.56225248	    -30.71944215	     10.63158450	      2.87705182	     -3.95693263	      3.06838224	    -16.35853205
      2.09000000	     -5.79820637	     -5.42427742	     -0.82856417	     -0.35069727	      0.91699505	     -0.06905601	     24.61845040	      8.14732886	     -7.30649820	    -19.15121451	      3.23768813	     -3.95421393	     -3.82395013	     -6.12205852	     -0.07625260	    -29.09698106	     11.73378686	      1.53682634	     -4.09039036	      2.97783283	    -17.12827276
      2.10000000	     -5.98995285	     -5.32335898	     -0.16494978	     -0.36114960	      0.91609339	     -0.07149389	     25.40016020	      7.64813549	     -7.84239622	    -18.94052325	      3.36679397	     -3.48101925	     -3.67856477	     -5.86363534	      0.26865997	    -27.72802622	     12.92145671	      0.10679156	     -4.34841772	      2.88324143	    -17.81872702
      2.11000000	     -6.10001506	     -5.18890833	      0.49268183	     -0.37182295	      0.91531374	     -0.07396595	     26.09662118	      7.09886786	     -8.35730079	    -18.74131310	      3.67467738	     -2.89619630	     -3.49390765	     -5.59066412	      0.44596600	    -26.58703158	     14.15595198	     -1.29818554	     -4.74978360	      2.75480262	    -18.46838516
      2.12000000	     -6.14067631	     -5.02046262	      1.12728070	     -0.38263670	      0.91468806	     -0.07643723	     26.69474183	      6.51429355	     -8.84104446	    -18.51744773	      4.17887964	     -2.22641721	     -3.30602553	     -5.29364336	      0.47648845	    -25.58419089	     15.36332109	     -2.54698761	     -5.26874412	      2.59272179	    -19.02662716
      2.13000000	     -6.10984828	     -4.79237006	      1.74678914	     -0.39360747	      0.91427383	     -0.07890617	     27.18861832	      5.87309868	     -9.27976475	    -18.26055761	      4.76711834	     -1.50591163	     -3.13198326	     -4.93759513	      0.41277927	    -24.67062672	     16.46824707	     -3.54991264	     -5.91136913	      2.36654753	    -19.52655620
      2.14000000	     -6.03004711	     -4.52290258	      2.30997086	     -0.40464509	      0.91405672	     -0.08128337	     27.58487099	      5.22510694	     -9.60847038	    -17.94566190	      5.42868082	     -0.75930386	     -2.99612113	     -4.53523662	      0.25743458	    -23.77203221	     17.45916308	     -4.34143545	     -6.63765553	      2.09560407	    -19.92359615
      2.15000000	     -5.90554773	     -4.20857305	      2.82476913	     -0.41571476	      0.91403936	     -0.08356049	     27.87991036	      4.56949536	     -9.83660565	    -17.55832043	      6.10234287	     -0.02507378	     -2.89916064	     -4.07919555	      0.05651438	    -22.87361714	     18.30953380	     -4.93745280	     -7.43538081	      1.77238450	    -20.24217355
      2.16000000	     -5.73813563	     -3.84629688	      3.29699990	     -0.42678018	      0.91420557	     -0.08575964	     28.06653015	      3.90280209	     -9.97059421	    -17.08342506	      6.76732271	      0.67867575	     -2.82867876	     -3.56156710	     -0.15667997	    -22.00120023	     19.00920566	     -5.39774381	     -8.29497558	      1.39722846	    -20.49837743
      2.17000000	     -5.54825216	     -3.43867284	      3.72582660	     -0.43777942	      0.91449220	     -0.08789338	     28.17358094	      3.22248189	    -10.03909087	    -16.54057506	      7.44399744	      1.27509007	     -2.76965313	     -2.98321212	     -0.36277402	    -21.15273779	     19.53908070	     -5.70530659	     -9.17730250	      0.97722944	    -20.71488531
      2.18000000	     -5.32753200	     -3.03421427	      4.11254652	     -0.44868391	      0.91487739	     -0.08992334	     28.17335425	      2.58424472	    -10.03508604	    -15.88868414	      7.96735742	      1.96334222	     -2.70921338	     -2.40008373	     -0.53135918	    -20.37950891	     20.06359437	     -6.09113177	    -10.08424600	      0.56028261	    -20.84194292
      2.19000000	     -5.10652126	     -2.59797722	      4.46392843	     -0.45946117	      0.91527208	     -0.09190399	     28.13944178	      1.93159947	    -10.00596534	    -15.22390487	      8.46370401	      2.49949367	     -2.61651121	     -1.77520693	     -0.66393523	    -19.68683924	     20.45665796	     -6.35706143	    -10.96864504	      0.11605268	    -20.93640770
      2.20000000	     -4.92897848	     -2.15376682	      4.77328985	     -0.47007344	      0.91556292	     -0.09379474	     28.14066247	      1.28512390	     -9.95416797	    -14.60042780	      8.90823777	      2.82863853	     -2.45888447	     -1.13541883	     -0.74488179	    -19.05761938	     20.84924193	     -6.47486015	    -11.76182054	     -0.33763822	    -20.98224269
      2.21000000	     -4.69231081	     -1.70387405	      5.04708365	     -0.48049118	      0.91596470	     -0.09564961	     28.05813699	      0.64478166	     -9.90117790	    -14.02401109	      9.17079699	      3.28931187	     -2.34207805	     -0.49639970	     -0.82889176	    -18.50507963	     21.09675472	     -6.78149055	    -12.58799930	     -0.77657226	    -20.99668415
      2.22000000	     -4.53906270	     -1.25214277	      5.27903037	     -0.49073622	      0.91619478	     -0.09741081	     28.11482157	     -0.00087304	     -9.84527571	    -13.64691084	      9.35804263	      3.46626456	     -2.13811660	      0.15246820	     -0.83792796	    -17.98700186	     21.40439171	     -6.87916781	    -13.26679081	     -1.22152861	    -20.93993748
      2.23000000	     -4.37981580	     -0.77630876	      5.47161460	     -0.50079004	      0.91647918	     -0.09912329	     28.22574351	     -0.67849064	     -9.81435090	    -13.53087821	      9.45765196	      3.61185534	     -1.93595822	      0.82125623	     -0.86488416	    -17.51660162	     21.55090900	     -7.04402571	    -13.91309194	     -1.68242473	    -20.83516960
      2.24000000	     -4.25149726	     -0.28692355	      5.62535798	     -0.51063676	      0.91679167	     -0.10076564	     28.45844393	     -1.38510590	     -9.81603070	    -13.76162247	      9.49472962	      3.66770563	     -1.70342078	      1.50165772	     -0.89382641	    -17.07933460	     21.60548926	     -7.22440114	    -14.47720116	     -2.15609546	    -20.67039026
      2.25000000	     -4.16126569	      0.22584594	      5.73171104	     -0.52024186	      0.91717701	     -0.10233227	     28.83383505	     -2.13174780	     -9.86367560	    -14.39393073	      9.51638624	      3.62616765	     -1.44742627	      2.20677624	     -0.93355558	    -16.64953037	     21.53502257	     -7.38426467	    -14.94920328	     -2.65415968	    -20.45058148
      2.26000000	     -4.16223330	      0.75622695	      5.79044277	     -0.52963487	      0.91756919	     -0.10382496	     29.43088744	     -2.92099184	     -9.93624659	    -15.47997988	      9.53648610	      3.47846672	     -1.07317362	      2.93244842	     -1.02385417	    -16.29056674	     21.37171611	     -7.61576412	    -15.26934586	     -3.17539927	    -20.18173605
      2.27000000	     -4.14623158	      1.29477848	      5.80285082	     -0.53866544	      0.91821280	     -0.10523042	     30.08129368	     -3.72908864	    -10.04982057	    -16.94741031	      9.62119897	      3.32396858	     -0.76351357	      3.65700312	     -1.11081561	    -15.88532188	     21.03519324	     -7.70725827	    -15.55549764	     -3.70409972	    -19.85566829
      2.28000000	     -4.13831374	      1.81507654	      5.76420398	     -0.54732425	      0.91906886	     -0.10652195	     30.78989303	     -4.52205572	    -10.16361477	    -18.74238781	      9.76908800	      3.19977204	     -0.47459245	      4.35153519	     -1.21209893	    -15.45991015	     20.56915799	     -7.72595060	    -15.77438074	     -4.21673447	    -19.46558918
